<svg width="20" height="21" viewBox="0 0 20 21" fill="none" xmlns="http://www.w3.org/2000/svg">
<path d="M18.3332 14.5999V17.0999C18.3341 17.332 18.2866 17.5617 18.1936 17.7744C18.1006 17.987 17.9643 18.1779 17.7933 18.3348C17.6222 18.4917 17.4203 18.6112 17.2005 18.6855C16.9806 18.7599 16.7477 18.7875 16.5165 18.7666C13.9522 18.488 11.489 17.6117 9.32486 16.2083C7.31139 14.9288 5.60431 13.2217 4.32486 11.2083C2.91651 9.03426 2.04007 6.55908 1.76653 3.98325C1.7457 3.75281 1.77309 3.52055 1.84695 3.30127C1.9208 3.08199 2.03951 2.88049 2.1955 2.7096C2.3515 2.53871 2.54137 2.40218 2.75302 2.30869C2.96468 2.2152 3.19348 2.1668 3.42486 2.16658H5.92486C6.32928 2.1626 6.72136 2.30582 7.028 2.56953C7.33464 2.83324 7.53493 3.19946 7.59153 3.59992C7.69705 4.39997 7.89274 5.18552 8.17486 5.94158C8.28698 6.23985 8.31125 6.56401 8.24478 6.87565C8.17832 7.18729 8.02392 7.47334 7.79986 7.69992L6.74153 8.75825C7.92783 10.8445 9.65524 12.572 11.7415 13.7583L12.7999 12.6999C13.0264 12.4759 13.3125 12.3215 13.6241 12.255C13.9358 12.1885 14.2599 12.2128 14.5582 12.3249C15.3143 12.607 16.0998 12.8027 16.8999 12.9083C17.3047 12.9654 17.6744 13.1693 17.9386 13.4812C18.2029 13.7931 18.3433 14.1912 18.3332 14.5999Z" stroke="#D3D7D9" stroke-width="2" stroke-linecap="round" stroke-linejoin="round"/>
</svg>
