<svg width="24" height="25" viewBox="0 0 24 25" fill="none" xmlns="http://www.w3.org/2000/svg">
<path d="M20 10.5C20 14.918 12 22.5 12 22.5C12 22.5 4 14.918 4 10.5C4 8.37827 4.84285 6.34344 6.34315 4.84315C7.84344 3.34285 9.87827 2.5 12 2.5C14.1217 2.5 16.1566 3.34285 17.6569 4.84315C19.1571 6.34344 20 8.37827 20 10.5Z" stroke="#D3D7D9" stroke-width="2"/>
<path d="M12 11.5C12.2652 11.5 12.5196 11.3946 12.7071 11.2071C12.8946 11.0196 13 10.7652 13 10.5C13 10.2348 12.8946 9.98043 12.7071 9.79289C12.5196 9.60536 12.2652 9.5 12 9.5C11.7348 9.5 11.4804 9.60536 11.2929 9.79289C11.1054 9.98043 11 10.2348 11 10.5C11 10.7652 11.1054 11.0196 11.2929 11.2071C11.4804 11.3946 11.7348 11.5 12 11.5Z" fill="#D3D7D9" stroke="#D3D7D9" stroke-width="2" stroke-linecap="round" stroke-linejoin="round"/>
</svg>
