<svg width="234" height="92" viewBox="0 0 234 92" fill="none" xmlns="http://www.w3.org/2000/svg">
<path d="M103.501 30.0271L108.703 38.0376H129.895L141.265 55.5437H150.815L138.909 37.2093L139.357 37.0545C143.011 35.7939 146.074 33.1047 147.982 29.4824C149.181 27.2034 149.807 24.6668 149.807 22.0916C149.815 19.5617 149.211 17.0672 148.047 14.821C146.806 12.4133 144.968 10.3637 142.71 8.86729C140.452 7.37088 137.848 6.47754 135.147 6.27237L135.058 6.26904H109.266L124.694 30.0271H103.501ZM124.019 14.2796H133.943C135.987 14.2799 137.95 15.0745 139.418 16.4956C140.886 17.9166 141.745 19.8528 141.812 21.895C141.879 23.9373 141.149 25.9256 139.778 27.4399C138.406 28.9542 136.499 29.876 134.46 30.0104L134.243 30.0245L124.019 14.2796Z" fill="url(#paint0_linear_239_47)"/>
<path d="M115.717 40.5172V47.5333H107.008C104.824 47.5339 102.662 47.1042 100.644 46.2689C98.627 45.4335 96.7939 44.2089 95.2499 42.6649C93.7058 41.1209 92.4812 39.2878 91.6458 37.2703C90.8105 35.2529 90.3808 33.0906 90.3814 30.9071V30.9L90.3816 30.8929L90.4292 29.6424L90.4296 29.6306L90.4308 29.6189C90.7696 25.4503 92.6612 21.5607 95.731 18.7202C98.8009 15.8797 102.825 14.2952 107.008 14.2805L110.858 14.2801L111.391 14.28L106.201 6.28809C102.781 6.3972 99.4217 7.21885 96.3374 8.70047C93.2531 10.1821 90.5119 12.2911 88.2892 14.8926C84.7276 19.0223 82.6541 24.2273 82.4006 29.6748C82.381 30.081 82.3711 30.4956 82.3711 30.9069C82.3715 37.4408 84.9673 43.7069 89.5875 48.3271C94.2076 52.9472 100.474 55.543 107.008 55.5434H123.728V40.5172H115.717Z" fill="url(#paint1_linear_239_47)"/>
<path d="M10.8163 82.3314H6.26904V65.3721H21.3028V69.0378H10.8163V82.3314Z" fill="#003D5B"/>
<path d="M27.4969 77.0881V82.3314H22.9496V65.3721H33.3433C34.1724 65.3702 34.9998 65.448 35.8141 65.6043C36.5779 65.7452 37.302 66.0499 37.9368 66.4973C38.578 66.9659 39.0858 67.5937 39.41 68.3186C39.8068 69.2648 39.9928 70.286 39.9554 71.3113C39.9554 72.5489 39.7698 73.5465 39.3985 74.304C39.0708 75.0112 38.5577 75.6165 37.9138 76.0557C37.2712 76.4749 36.5481 76.7554 35.7909 76.8792C34.9826 77.0195 34.1636 77.0894 33.3433 77.0881L27.4969 77.0881ZM35.4777 71.3113C35.4891 70.9373 35.4341 70.5642 35.3153 70.2093C35.2271 69.9545 35.08 69.724 34.886 69.5366C34.7083 69.3744 34.493 69.2587 34.2596 69.2001C34.0055 69.1366 33.7443 69.1054 33.4824 69.1073H27.4969V73.4922H33.4824C33.7443 73.4943 34.0055 73.4631 34.2596 73.3994C34.4931 73.3409 34.7083 73.2253 34.886 73.063C35.0783 72.8787 35.2252 72.6524 35.3153 72.4018C35.4349 72.0511 35.4899 71.6816 35.4777 71.3113Z" fill="#003D5B"/>
<path d="M46.2193 65.3721H51.1378L59.4433 82.3314H54.8498L53.2952 79.0369H44.201L42.6464 82.3314H37.9138L46.2193 65.3721ZM45.8248 75.5801H51.6482L48.725 69.409L45.8248 75.5801Z" fill="#003D5B"/>
<path d="M78.096 65.3721V82.3314H73.5489V75.7195H65.4521V82.3314H60.9048V65.3721H65.4521V71.9842H73.5489V65.3721H78.096Z" fill="#003D5B"/>
<path d="M97.8393 82.3314H83.7567V85.7316H79.8361V78.6657H82.0401C82.3663 78.6566 82.6883 78.5899 82.9912 78.4685C83.2883 78.3372 83.5418 78.1239 83.7219 77.8536C83.9667 77.4775 84.1434 77.0614 84.244 76.6241C84.4057 75.961 84.5143 75.2861 84.5687 74.6057L85.4969 65.3721H98.6511V78.6657H101.76V85.7316H97.8393V82.3314ZM88.5359 75.1393C88.4585 75.851 88.3619 76.4967 88.2459 77.0766C88.1411 77.6159 87.9977 78.1469 87.8169 78.6657H94.1041V69.0378H89.1393L88.5359 75.1393Z" fill="#003D5B"/>
<path d="M126.676 66.497C126.041 66.0495 125.317 65.7448 124.553 65.6039C123.739 65.4476 122.911 65.3698 122.082 65.3717H111.688V73.4919H106.674L109.005 77.0807H111.688V82.331H116.236V77.0877H122.082C122.903 77.089 123.721 77.0192 124.53 76.8789C125.287 76.755 126.01 76.4746 126.653 76.0553C127.297 75.6161 127.81 75.0108 128.137 74.3037C128.509 73.5462 128.694 72.5486 128.694 71.3109C128.732 70.2856 128.546 69.2644 128.149 68.3182C127.825 67.5933 127.317 66.9655 126.676 66.497ZM124.054 72.4014C123.964 72.652 123.817 72.8783 123.625 73.0626C123.447 73.2249 123.232 73.3405 122.998 73.399C122.744 73.4627 122.483 73.4939 122.221 73.4919H116.236V69.107H122.221C122.483 69.1051 122.744 69.1362 122.998 69.1998C123.232 69.2584 123.447 69.374 123.625 69.5362C123.819 69.7236 123.966 69.9541 124.054 70.2089C124.173 70.5638 124.228 70.9369 124.217 71.3109C124.229 71.6812 124.174 72.0507 124.054 72.4014Z" fill="#003D5B"/>
<path d="M134.865 77.3663V65.3718H130.643V82.3311H135.213L143.635 70.6614V82.3311H147.834V65.3718H143.264L134.865 77.3663Z" fill="#003D5B"/>
<path d="M153.634 74.6054C153.583 75.3145 153.467 76.0174 153.286 76.705C153.175 77.1466 152.982 77.5636 152.718 77.9346C152.516 78.2045 152.237 78.4068 151.917 78.5147C151.579 78.6194 151.227 78.6702 150.873 78.6653H149.481V82.331H151.546C152.349 82.3433 153.149 82.2218 153.913 81.9715C154.602 81.7359 155.218 81.324 155.699 80.7767C156.246 80.1254 156.66 79.3724 156.917 78.561C157.273 77.4497 157.503 76.3018 157.601 75.139L158.204 69.0374H163.169V82.331H167.716V65.3717H154.562L153.634 74.6054Z" fill="#003D5B"/>
<path d="M177.507 65.3717L169.201 82.331H173.934L175.488 79.0365H184.583L186.137 82.331H190.731L182.425 65.3717H177.507ZM177.112 75.5797L180.012 69.4087L182.936 75.5797H177.112Z" fill="#003D5B"/>
<path d="M226.426 74.9533C226.124 74.3745 225.666 73.8922 225.103 73.5614C225.568 73.2164 225.936 72.7567 226.17 72.2273C226.719 70.7687 226.695 69.156 226.101 67.715C225.807 67.129 225.358 66.6353 224.802 66.2881C224.194 65.9214 223.52 65.6771 222.818 65.5689C221.986 65.4323 221.144 65.3664 220.301 65.3717H211.75V69.0374H220.417C220.89 69.0192 221.358 69.1402 221.762 69.3854C222.118 69.6173 222.296 70.0349 222.296 70.6382C222.305 70.9004 222.258 71.1615 222.157 71.4037C222.074 71.5933 221.941 71.7574 221.774 71.8793C221.601 71.9998 221.403 72.0792 221.194 72.1114C220.953 72.1515 220.708 72.1709 220.463 72.1695H214.211V75.4407H220.626C221.077 75.4253 221.523 75.5379 221.913 75.7654C222.261 75.9821 222.435 76.4075 222.435 77.0415C222.435 77.6757 222.258 78.1049 221.902 78.3291C221.502 78.5649 221.043 78.6816 220.579 78.6653H211.704V82.331H220.301C221.19 82.3363 222.079 82.2704 222.957 82.1338C223.699 82.0276 224.413 81.7752 225.057 81.3914C225.646 81.027 226.12 80.5045 226.426 79.8834C226.78 79.1012 226.946 78.2473 226.913 77.3894C226.913 76.3685 226.751 75.5565 226.426 74.9533Z" fill="#003D5B"/>
<path d="M196.415 77.3663V65.3718H192.192V82.3311H196.763L205.184 70.6614V82.3311H209.383V65.3718H204.813L196.415 77.3663Z" fill="#003D5B"/>
<path d="M205.677 61.813H198.081L196.711 63.7765H204.307L205.677 61.813Z" fill="#003D5B"/>
<defs>
<linearGradient id="paint0_linear_239_47" x1="145.818" y1="38.3277" x2="103.479" y2="6.98474" gradientUnits="userSpaceOnUse">
<stop stop-color="#FF9A4E"/>
<stop offset="0.69704" stop-color="#FF7F40"/>
<stop offset="1" stop-color="#FF6B35"/>
</linearGradient>
<linearGradient id="paint1_linear_239_47" x1="134.041" y1="54.2353" x2="91.7029" y2="22.8923" gradientUnits="userSpaceOnUse">
<stop stop-color="#FF9A4E"/>
<stop offset="0.69704" stop-color="#FF7F40"/>
<stop offset="1" stop-color="#FF6B35"/>
</linearGradient>
</defs>
</svg>
